<svg xmlns="http://www.w3.org/2000/svg" viewBox="0 0 800 1000" role="img" aria-labelledby="title desc">
  <title id="title">Tu foto aqui 3</title>
  <desc id="desc">Imagen de reemplazo para un recuerdo especial.</desc>
  <defs>
    <linearGradient id="bg3" x1="0" y1="1" x2="1" y2="0">
      <stop offset="0%" stop-color="#ffe7ee"/>
      <stop offset="100%" stop-color="#fff9f4"/>
    </linearGradient>
  </defs>
  <rect width="800" height="1000" fill="url(#bg3)"/>
  <circle cx="190" cy="780" r="100" fill="#ffffff" opacity="0.55"/>
  <circle cx="620" cy="210" r="82" fill="#f4b6c8" opacity="0.4"/>
  <path d="M400 280c-52 0-95 40-95 95 0 76 95 150 95 150s95-74 95-150c0-55-43-95-95-95zm0 28c20-28 64-21 64 16 0 46-64 93-64 93s-64-47-64-93c0-37 44-44 64-16z" fill="#de5d83"/>
  <rect x="170" y="600" width="460" height="130" rx="65" fill="#ffffff" opacity="0.48"/>
  <text x="400" y="680" text-anchor="middle" font-family="Georgia, serif" font-size="54" fill="#8b3f5f">Tu foto aquí</text>
  <text x="400" y="760" text-anchor="middle" font-family="Arial, sans-serif" font-size="28" fill="#8b5e73">Puedes cambiar esta por cualquier imagen</text>
</svg>
